<svg width="334" height="49" viewBox="0 0 334 49" fill="none" xmlns="http://www.w3.org/2000/svg">
<path d="M38.0625 42.25C36.375 44.2708 33.9896 45.8438 30.9062 46.9688C27.8229 48.0729 24.4062 48.625 20.6562 48.625C16.7188 48.625 13.2604 47.7708 10.2812 46.0625C7.32292 44.3333 5.03125 41.8333 3.40625 38.5625C1.80208 35.2917 0.979167 31.4479 0.9375 27.0312V23.9375C0.9375 19.3958 1.69792 15.4688 3.21875 12.1562C4.76042 8.82292 6.96875 6.28125 9.84375 4.53125C12.7396 2.76042 16.125 1.875 20 1.875C25.3958 1.875 29.6146 3.16667 32.6562 5.75C35.6979 8.3125 37.5 12.0521 38.0625 16.9688H28.9375C28.5208 14.3646 27.5938 12.4583 26.1562 11.25C24.7396 10.0417 22.7812 9.4375 20.2812 9.4375C17.0938 9.4375 14.6667 10.6354 13 13.0312C11.3333 15.4271 10.4896 18.9896 10.4688 23.7188V26.625C10.4688 31.3958 11.375 35 13.1875 37.4375C15 39.875 17.6562 41.0938 21.1562 41.0938C24.6771 41.0938 27.1875 40.3438 28.6875 38.8438V31H20.1562V24.0938H38.0625V42.25ZM61.375 23L70.8438 2.5H81.0938L66.1562 31.5V48H56.625V31.5L41.6875 2.5H51.9688L61.375 23ZM97.5 2.5L109.188 35.5L120.812 2.5H133.125V48H123.719V35.5625L124.656 14.0938L112.375 48H105.938L93.6875 14.125L94.625 35.5625V48H85.25V2.5H97.5ZM159.031 38.6562C159.031 37.5521 158.479 36.6875 157.375 36.0625C156.292 35.4167 154.542 34.8438 152.125 34.3438C144.083 32.6562 140.062 29.2396 140.062 24.0938C140.062 21.0938 141.302 18.5938 143.781 16.5938C146.281 14.5729 149.542 13.5625 153.562 13.5625C157.854 13.5625 161.281 14.5729 163.844 16.5938C166.427 18.6146 167.719 21.2396 167.719 24.4688H158.688C158.688 23.1771 158.271 22.1146 157.438 21.2812C156.604 20.4271 155.302 20 153.531 20C152.01 20 150.833 20.3438 150 21.0312C149.167 21.7188 148.75 22.5938 148.75 23.6562C148.75 24.6562 149.219 25.4688 150.156 26.0938C151.115 26.6979 152.719 27.2292 154.969 27.6875C157.219 28.125 159.115 28.625 160.656 29.1875C165.427 30.9375 167.812 33.9688 167.812 38.2812C167.812 41.3646 166.49 43.8646 163.844 45.7812C161.198 47.6771 157.781 48.625 153.594 48.625C150.76 48.625 148.24 48.125 146.031 47.125C143.844 46.1042 142.125 44.7188 140.875 42.9688C139.625 41.1979 139 39.2917 139 37.25H147.562C147.646 38.8542 148.24 40.0833 149.344 40.9375C150.448 41.7917 151.927 42.2188 153.781 42.2188C155.51 42.2188 156.812 41.8958 157.688 41.25C158.583 40.5833 159.031 39.7188 159.031 38.6562ZM184.469 5.875V14.1875H190.25V20.8125H184.469V37.6875C184.469 38.9375 184.708 39.8333 185.188 40.375C185.667 40.9167 186.583 41.1875 187.938 41.1875C188.938 41.1875 189.823 41.1146 190.594 40.9688V47.8125C188.823 48.3542 187 48.625 185.125 48.625C178.792 48.625 175.562 45.4271 175.438 39.0312V20.8125H170.5V14.1875H175.438V5.875H184.469ZM214.875 48C214.458 47.1875 214.156 46.1771 213.969 44.9688C211.781 47.4062 208.938 48.625 205.438 48.625C202.125 48.625 199.375 47.6667 197.188 45.75C195.021 43.8333 193.938 41.4167 193.938 38.5C193.938 34.9167 195.26 32.1667 197.906 30.25C200.573 28.3333 204.417 27.3646 209.438 27.3438H213.594V25.4062C213.594 23.8438 213.188 22.5938 212.375 21.6562C211.583 20.7188 210.323 20.25 208.594 20.25C207.073 20.25 205.875 20.6146 205 21.3438C204.146 22.0729 203.719 23.0729 203.719 24.3438H194.688C194.688 22.3854 195.292 20.5729 196.5 18.9062C197.708 17.2396 199.417 15.9375 201.625 15C203.833 14.0417 206.312 13.5625 209.062 13.5625C213.229 13.5625 216.531 14.6146 218.969 16.7188C221.427 18.8021 222.656 21.7396 222.656 25.5312V40.1875C222.677 43.3958 223.125 45.8229 224 47.4688V48H214.875ZM207.406 41.7188C208.74 41.7188 209.969 41.4271 211.094 40.8438C212.219 40.2396 213.052 39.4375 213.594 38.4375V32.625H210.219C205.698 32.625 203.292 34.1875 203 37.3125L202.969 37.8438C202.969 38.9688 203.365 39.8958 204.156 40.625C204.948 41.3542 206.031 41.7188 207.406 41.7188ZM240.406 5.875V14.1875H246.188V20.8125H240.406V37.6875C240.406 38.9375 240.646 39.8333 241.125 40.375C241.604 40.9167 242.521 41.1875 243.875 41.1875C244.875 41.1875 245.76 41.1146 246.531 40.9688V47.8125C244.76 48.3542 242.938 48.625 241.062 48.625C234.729 48.625 231.5 45.4271 231.375 39.0312V20.8125H226.438V14.1875H231.375V5.875H240.406ZM260.75 48H251.688V14.1875H260.75V48ZM251.156 5.4375C251.156 4.08333 251.604 2.96875 252.5 2.09375C253.417 1.21875 254.656 0.78125 256.219 0.78125C257.76 0.78125 258.99 1.21875 259.906 2.09375C260.823 2.96875 261.281 4.08333 261.281 5.4375C261.281 6.8125 260.812 7.9375 259.875 8.8125C258.958 9.6875 257.74 10.125 256.219 10.125C254.698 10.125 253.469 9.6875 252.531 8.8125C251.615 7.9375 251.156 6.8125 251.156 5.4375ZM266.812 30.7812C266.812 27.4271 267.458 24.4375 268.75 21.8125C270.042 19.1875 271.896 17.1562 274.312 15.7188C276.75 14.2812 279.573 13.5625 282.781 13.5625C287.344 13.5625 291.062 14.9583 293.938 17.75C296.833 20.5417 298.448 24.3333 298.781 29.125L298.844 31.4375C298.844 36.625 297.396 40.7917 294.5 43.9375C291.604 47.0625 287.719 48.625 282.844 48.625C277.969 48.625 274.073 47.0625 271.156 43.9375C268.26 40.8125 266.812 36.5625 266.812 31.1875V30.7812ZM275.844 31.4375C275.844 34.6458 276.448 37.1042 277.656 38.8125C278.865 40.5 280.594 41.3438 282.844 41.3438C285.031 41.3438 286.74 40.5104 287.969 38.8438C289.198 37.1562 289.812 34.4688 289.812 30.7812C289.812 27.6354 289.198 25.1979 287.969 23.4688C286.74 21.7396 285.01 20.875 282.781 20.875C280.573 20.875 278.865 21.7396 277.656 23.4688C276.448 25.1771 275.844 27.8333 275.844 31.4375ZM312.719 14.1875L313 18.0938C315.417 15.0729 318.656 13.5625 322.719 13.5625C326.302 13.5625 328.969 14.6146 330.719 16.7188C332.469 18.8229 333.365 21.9688 333.406 26.1562V48H324.375V26.375C324.375 24.4583 323.958 23.0729 323.125 22.2188C322.292 21.3438 320.906 20.9062 318.969 20.9062C316.427 20.9062 314.521 21.9896 313.25 24.1562V48H304.219V14.1875H312.719Z" fill="white"/>
</svg>
