<svg width="230" height="48" viewBox="0 0 230 48" fill="none" xmlns="http://www.w3.org/2000/svg">
<path fill-rule="evenodd" clip-rule="evenodd" d="M0 24C0 22.3431 1.34315 21 3 21L69 21C70.6569 21 72 22.3431 72 24C72 25.6569 70.6569 27 69 27L3 27C1.34315 27 0 25.6569 0 24Z" fill="#D30404"/>
<path fill-rule="evenodd" clip-rule="evenodd" d="M23 48C21.3431 48 20 46.6569 20 45L20 3C20 1.34315 21.3431 2.03558e-07 23 1.31134e-07C24.6569 5.87108e-08 26 1.34315 26 3L26 45C26 46.6569 24.6569 48 23 48Z" fill="#D30404"/>
<path fill-rule="evenodd" clip-rule="evenodd" d="M13 41C11.3431 41 10 39.6569 10 38L10 8C10 6.34315 11.3431 5 13 5C14.6569 5 16 6.34315 16 8L16 38C16 39.6569 14.6569 41 13 41Z" fill="#D30404"/>
<path fill-rule="evenodd" clip-rule="evenodd" d="M3 35C1.34314 35 -9.90363e-07 33.6569 -9.17939e-07 32L-1.31134e-07 14C-5.87108e-08 12.3431 1.34315 11 3 11C4.65685 11 6 12.3431 6 14L6 32C6 33.6569 4.65685 35 3 35Z" fill="#D30404"/>
<path fill-rule="evenodd" clip-rule="evenodd" d="M49 48C47.3431 48 46 46.6569 46 45L46 3C46 1.34315 47.3431 2.03558e-07 49 1.31134e-07C50.6569 5.87108e-08 52 1.34315 52 3L52 45C52 46.6569 50.6569 48 49 48Z" fill="#D30404"/>
<path fill-rule="evenodd" clip-rule="evenodd" d="M59 41C57.3431 41 56 39.6569 56 38L56 8C56 6.34315 57.3431 5 59 5C60.6569 5 62 6.34315 62 8L62 38C62 39.6569 60.6569 41 59 41Z" fill="#D30404"/>
<path fill-rule="evenodd" clip-rule="evenodd" d="M69 35C67.3431 35 66 33.6569 66 32L66 14C66 12.3431 67.3431 11 69 11C70.6569 11 72 12.3431 72 14L72 32C72 33.6569 70.6569 35 69 35Z" fill="#D30404"/>
<path d="M99.0234 29.8438C98.3906 30.6016 97.4961 31.1914 96.3398 31.6133C95.1836 32.0273 93.9023 32.2344 92.4961 32.2344C91.0195 32.2344 89.7227 31.9141 88.6055 31.2734C87.4961 30.625 86.6367 29.6875 86.0273 28.4609C85.4258 27.2344 85.1172 25.793 85.1016 24.1367V22.9766C85.1016 21.2734 85.3867 19.8008 85.957 18.5586C86.5352 17.3086 87.3633 16.3555 88.4414 15.6992C89.5273 15.0352 90.7969 14.7031 92.25 14.7031C94.2734 14.7031 95.8555 15.1875 96.9961 16.1562C98.1367 17.1172 98.8125 18.5195 99.0234 20.3633H95.6016C95.4453 19.3867 95.0977 18.6719 94.5586 18.2188C94.0273 17.7656 93.293 17.5391 92.3555 17.5391C91.1602 17.5391 90.25 17.9883 89.625 18.8867C89 19.7852 88.6836 21.1211 88.6758 22.8945V23.9844C88.6758 25.7734 89.0156 27.125 89.6953 28.0391C90.375 28.9531 91.3711 29.4102 92.6836 29.4102C94.0039 29.4102 94.9453 29.1289 95.5078 28.5664V25.625H92.3086V23.0352H99.0234V29.8438ZM107.766 22.625L111.316 14.9375H115.16L109.559 25.8125V32H105.984V25.8125L100.383 14.9375H104.238L107.766 22.625ZM121.312 14.9375L125.695 27.3125L130.055 14.9375H134.672V32H131.145V27.3359L131.496 19.2852L126.891 32H124.477L119.883 19.2969L120.234 27.3359V32H116.719V14.9375H121.312ZM144.387 28.4961C144.387 28.082 144.18 27.7578 143.766 27.5234C143.359 27.2812 142.703 27.0664 141.797 26.8789C138.781 26.2461 137.273 24.9648 137.273 23.0352C137.273 21.9102 137.738 20.9727 138.668 20.2227C139.605 19.4648 140.828 19.0859 142.336 19.0859C143.945 19.0859 145.23 19.4648 146.191 20.2227C147.16 20.9805 147.645 21.9648 147.645 23.1758H144.258C144.258 22.6914 144.102 22.293 143.789 21.9805C143.477 21.6602 142.988 21.5 142.324 21.5C141.754 21.5 141.312 21.6289 141 21.8867C140.688 22.1445 140.531 22.4727 140.531 22.8711C140.531 23.2461 140.707 23.5508 141.059 23.7852C141.418 24.0117 142.02 24.2109 142.863 24.3828C143.707 24.5469 144.418 24.7344 144.996 24.9453C146.785 25.6016 147.68 26.7383 147.68 28.3555C147.68 29.5117 147.184 30.4492 146.191 31.168C145.199 31.8789 143.918 32.2344 142.348 32.2344C141.285 32.2344 140.34 32.0469 139.512 31.6719C138.691 31.2891 138.047 30.7695 137.578 30.1133C137.109 29.4492 136.875 28.7344 136.875 27.9688H140.086C140.117 28.5703 140.34 29.0312 140.754 29.3516C141.168 29.6719 141.723 29.832 142.418 29.832C143.066 29.832 143.555 29.7109 143.883 29.4688C144.219 29.2188 144.387 28.8945 144.387 28.4961ZM153.926 16.2031V19.3203H156.094V21.8047H153.926V28.1328C153.926 28.6016 154.016 28.9375 154.195 29.1406C154.375 29.3438 154.719 29.4453 155.227 29.4453C155.602 29.4453 155.934 29.418 156.223 29.3633V31.9297C155.559 32.1328 154.875 32.2344 154.172 32.2344C151.797 32.2344 150.586 31.0352 150.539 28.6367V21.8047H148.688V19.3203H150.539V16.2031H153.926ZM165.328 32C165.172 31.6953 165.059 31.3164 164.988 30.8633C164.168 31.7773 163.102 32.2344 161.789 32.2344C160.547 32.2344 159.516 31.875 158.695 31.1562C157.883 30.4375 157.477 29.5312 157.477 28.4375C157.477 27.0938 157.973 26.0625 158.965 25.3438C159.965 24.625 161.406 24.2617 163.289 24.2539H164.848V23.5273C164.848 22.9414 164.695 22.4727 164.391 22.1211C164.094 21.7695 163.621 21.5938 162.973 21.5938C162.402 21.5938 161.953 21.7305 161.625 22.0039C161.305 22.2773 161.145 22.6523 161.145 23.1289H157.758C157.758 22.3945 157.984 21.7148 158.438 21.0898C158.891 20.4648 159.531 19.9766 160.359 19.625C161.188 19.2656 162.117 19.0859 163.148 19.0859C164.711 19.0859 165.949 19.4805 166.863 20.2695C167.785 21.0508 168.246 22.1523 168.246 23.5742V29.0703C168.254 30.2734 168.422 31.1836 168.75 31.8008V32H165.328ZM162.527 29.6445C163.027 29.6445 163.488 29.5352 163.91 29.3164C164.332 29.0898 164.645 28.7891 164.848 28.4141V26.2344H163.582C161.887 26.2344 160.984 26.8203 160.875 27.9922L160.863 28.1914C160.863 28.6133 161.012 28.9609 161.309 29.2344C161.605 29.5078 162.012 29.6445 162.527 29.6445ZM174.902 16.2031V19.3203H177.07V21.8047H174.902V28.1328C174.902 28.6016 174.992 28.9375 175.172 29.1406C175.352 29.3438 175.695 29.4453 176.203 29.4453C176.578 29.4453 176.91 29.418 177.199 29.3633V31.9297C176.535 32.1328 175.852 32.2344 175.148 32.2344C172.773 32.2344 171.562 31.0352 171.516 28.6367V21.8047H169.664V19.3203H171.516V16.2031H174.902ZM182.531 32H179.133V19.3203H182.531V32ZM178.934 16.0391C178.934 15.5312 179.102 15.1133 179.438 14.7852C179.781 14.457 180.246 14.293 180.832 14.293C181.41 14.293 181.871 14.457 182.215 14.7852C182.559 15.1133 182.73 15.5312 182.73 16.0391C182.73 16.5547 182.555 16.9766 182.203 17.3047C181.859 17.6328 181.402 17.7969 180.832 17.7969C180.262 17.7969 179.801 17.6328 179.449 17.3047C179.105 16.9766 178.934 16.5547 178.934 16.0391ZM184.805 25.543C184.805 24.2852 185.047 23.1641 185.531 22.1797C186.016 21.1953 186.711 20.4336 187.617 19.8945C188.531 19.3555 189.59 19.0859 190.793 19.0859C192.504 19.0859 193.898 19.6094 194.977 20.6562C196.062 21.7031 196.668 23.125 196.793 24.9219L196.816 25.7891C196.816 27.7344 196.273 29.2969 195.188 30.4766C194.102 31.6484 192.645 32.2344 190.816 32.2344C188.988 32.2344 187.527 31.6484 186.434 30.4766C185.348 29.3047 184.805 27.7109 184.805 25.6953V25.543ZM188.191 25.7891C188.191 26.9922 188.418 27.9141 188.871 28.5547C189.324 29.1875 189.973 29.5039 190.816 29.5039C191.637 29.5039 192.277 29.1914 192.738 28.5664C193.199 27.9336 193.43 26.9258 193.43 25.543C193.43 24.3633 193.199 23.4492 192.738 22.8008C192.277 22.1523 191.629 21.8281 190.793 21.8281C189.965 21.8281 189.324 22.1523 188.871 22.8008C188.418 23.4414 188.191 24.4375 188.191 25.7891ZM202.02 19.3203L202.125 20.7852C203.031 19.6523 204.246 19.0859 205.77 19.0859C207.113 19.0859 208.113 19.4805 208.77 20.2695C209.426 21.0586 209.762 22.2383 209.777 23.8086V32H206.391V23.8906C206.391 23.1719 206.234 22.6523 205.922 22.332C205.609 22.0039 205.09 21.8398 204.363 21.8398C203.41 21.8398 202.695 22.2461 202.219 23.0586V32H198.832V19.3203H202.02Z" fill="white"/>
</svg>
